<svg width="172" height="78" viewBox="0 0 172 78" fill="none" xmlns="http://www.w3.org/2000/svg">
<path d="M109.796 77.5954C109.582 77.599 109.37 77.5488 109.181 77.4494L85.4926 65.0369L61.8191 77.4494C61.6012 77.5654 61.3549 77.6179 61.1085 77.601C60.8621 77.5841 60.6254 77.4984 60.4254 77.3537C60.2254 77.2091 60.0702 77.0113 59.9776 76.7829C59.8849 76.5545 59.8584 76.3048 59.9012 76.0621L64.4251 49.7768L45.2755 31.1435C45.0954 30.9728 44.968 30.7542 44.9083 30.5135C44.8486 30.2729 44.8592 30.0203 44.9388 29.7855C45.0186 29.5539 45.1604 29.3486 45.3488 29.1916C45.5371 29.0346 45.7649 28.9319 46.0075 28.8947L72.4773 25.0541L84.3213 1.13452C84.4269 0.914484 84.5932 0.728973 84.8006 0.599677C85.008 0.470381 85.248 0.402642 85.4926 0.404378C85.7393 0.401621 85.9817 0.468776 86.1916 0.598031C86.4015 0.727286 86.5703 0.913328 86.6784 1.13452L98.5225 25.0541L124.992 28.8947C125.235 28.9319 125.463 29.0346 125.651 29.1916C125.839 29.3486 125.981 29.5539 126.061 29.7855C126.132 30.0211 126.138 30.2716 126.079 30.5105C126.02 30.7494 125.897 30.9681 125.724 31.1435L106.56 49.7622L111.084 76.0475C111.127 76.288 111.101 76.5357 111.011 76.7627C110.92 76.9897 110.768 77.187 110.571 77.3326C110.348 77.5021 110.076 77.5944 109.796 77.5954ZM85.4926 62.2331C85.7057 62.2366 85.9156 62.2864 86.1075 62.3792L108.068 73.8863L103.852 49.5286C103.817 49.3177 103.834 49.1017 103.9 48.8985C103.966 48.6954 104.08 48.5109 104.232 48.3604L121.976 31.1143L97.4537 27.5658C97.2424 27.5349 97.0417 27.4537 96.8685 27.3292C96.6952 27.2046 96.5545 27.0404 96.4582 26.8503L85.4926 4.68303L74.5269 26.8503C74.433 27.0393 74.2949 27.203 74.1241 27.3276C73.9534 27.4521 73.7551 27.5338 73.546 27.5658L49.0234 31.1143L66.7675 48.3604C66.9195 48.5109 67.0334 48.6954 67.0996 48.8985C67.1658 49.1017 67.1824 49.3177 67.1482 49.5286L62.9611 73.8863L84.9216 62.3792C85.1009 62.2949 85.2947 62.2453 85.4926 62.2331Z" fill="#8F8F8F"/>
<path d="M11.0317 77.5954C10.7529 77.5986 10.4807 77.5115 10.2558 77.3472C10.0591 77.2016 9.90691 77.0043 9.8164 76.7773C9.72588 76.5503 9.70059 76.3026 9.74335 76.0621L12.6714 59.2249L0.402806 47.2944C0.223929 47.1259 0.097162 46.9098 0.0374905 46.6717C-0.022181 46.4337 -0.0122609 46.1835 0.066078 45.9509C0.145933 45.7194 0.2877 45.514 0.476061 45.357C0.664422 45.2 0.892214 45.0974 1.13482 45.0601L18.0737 42.6068L25.6281 27.3322C25.7639 27.1452 25.9421 26.9929 26.1483 26.8879C26.3544 26.783 26.5826 26.7282 26.814 26.7282C27.0455 26.7282 27.2736 26.783 27.4798 26.8879C27.6859 26.9929 27.8641 27.1452 27.9999 27.3322L35.5689 42.6652L52.5225 45.1185C52.7651 45.1558 52.9929 45.2584 53.1812 45.4154C53.3696 45.5724 53.5114 45.7778 53.5912 46.0093C53.6696 46.2419 53.6795 46.4921 53.6198 46.7301C53.5601 46.9682 53.4334 47.1843 53.2545 47.3528L40.9859 59.2834L43.9139 76.1205C43.9548 76.3612 43.9276 76.6085 43.8354 76.8346C43.7433 77.0608 43.5898 77.2569 43.3922 77.4009C43.1946 77.545 42.9607 77.6312 42.7167 77.6501C42.4727 77.669 42.2282 77.6197 42.0107 77.5078L26.814 69.5054L11.6466 77.4494C11.4572 77.5488 11.2457 77.599 11.0317 77.5954ZM26.814 66.76C27.0278 66.7582 27.2389 66.8084 27.4289 66.9061L40.8395 73.9447L38.2774 59.0497C38.2394 58.8388 38.2542 58.6217 38.3206 58.4179C38.387 58.2141 38.503 58.0298 38.6581 57.8815L49.5066 47.3382L34.5148 45.1039C34.3027 45.0754 34.101 44.9952 33.9273 44.8704C33.7537 44.7456 33.6136 44.58 33.5193 44.3884L26.814 30.8369L20.0648 44.3884C19.9685 44.5785 19.8278 44.7427 19.6545 44.8673C19.4813 44.9918 19.2806 45.073 19.0693 45.1039L4.12146 47.2798L14.97 57.8231C15.122 57.9736 15.2358 58.1581 15.302 58.3612C15.3682 58.5644 15.3849 58.7804 15.3506 58.9913L12.7446 73.8863L26.1552 66.8477C26.3637 66.7628 26.5905 66.7326 26.814 66.76Z" fill="#8F8F8F"/>
<path d="M159.953 77.5954C159.74 77.5961 159.529 77.546 159.339 77.4494L144.186 69.5054L129.018 77.4494C128.801 77.5674 128.555 77.6215 128.309 77.6052C128.062 77.589 127.825 77.5031 127.626 77.3577C127.426 77.2123 127.272 77.0132 127.182 76.7838C127.091 76.5544 127.068 76.3041 127.115 76.0621L130.043 59.2249L117.775 47.2944C117.596 47.1259 117.469 46.9098 117.409 46.6717C117.35 46.4337 117.359 46.1835 117.438 45.9509C117.514 45.7196 117.652 45.5139 117.838 45.3566C118.025 45.1994 118.251 45.0967 118.492 45.0601L135.445 42.6068L143.044 27.3322C143.18 27.1452 143.358 26.9929 143.564 26.8879C143.77 26.783 143.998 26.7282 144.23 26.7282C144.461 26.7282 144.689 26.783 144.895 26.8879C145.102 26.9929 145.28 27.1452 145.416 27.3322L152.985 42.6652L169.938 45.1185C170.181 45.1558 170.409 45.2584 170.597 45.4154C170.785 45.5724 170.927 45.7778 171.007 46.0093C171.082 46.2423 171.09 46.4915 171.03 46.7289C170.971 46.9662 170.846 47.1823 170.67 47.3528L158.402 59.2834L161.33 76.1205C161.373 76.3625 161.346 76.6117 161.253 76.8391C161.159 77.0666 161.003 77.263 160.803 77.4056C160.552 77.57 160.25 77.6375 159.953 77.5954ZM121.493 47.2798L132.342 57.8231C132.494 57.9736 132.608 58.1581 132.674 58.3612C132.74 58.5644 132.757 58.7804 132.722 58.9913L130.16 73.8863L143.571 66.8477C143.764 66.7587 143.973 66.7126 144.186 66.7126C144.398 66.7126 144.608 66.7587 144.801 66.8477L158.211 73.8863L155.649 58.9913C155.615 58.7804 155.632 58.5644 155.698 58.3612C155.764 58.1581 155.878 57.9736 156.03 57.8231L166.878 47.2798L151.828 45.1039C151.616 45.0754 151.414 44.9952 151.241 44.8704C151.067 44.7456 150.927 44.58 150.832 44.3884L144.127 30.8369L137.422 44.3884C137.326 44.5785 137.185 44.7427 137.012 44.8673C136.838 44.9918 136.638 45.073 136.426 45.1039L121.493 47.2798Z" fill="#8F8F8F"/>
</svg>
