<svg width="115" height="115" viewBox="0 0 115 115" fill="none" xmlns="http://www.w3.org/2000/svg">
<path d="M97.8123 16.7834C92.5365 11.4722 86.2556 7.25919 79.3341 4.38889C72.4127 1.51859 64.9885 0.0482064 57.4927 0.0631003C54.9267 0.0685022 52.3638 0.244124 49.8212 0.588805C39.2846 2.0082 29.3558 6.33752 21.1557 13.0879C12.9556 19.8383 6.81093 28.741 3.41541 38.7906C0.0198902 48.8403 -0.491199 59.6366 1.93985 69.9607C4.3709 80.2847 9.64727 89.7253 17.1732 97.2163C22.4458 102.597 28.7364 106.882 35.6806 109.821C42.6248 112.76 50.0847 114.295 57.6281 114.338C65.1715 114.381 72.6485 112.931 79.626 110.072C86.6036 107.212 92.943 103 98.2771 97.6799C103.611 92.3595 107.834 86.0363 110.701 79.0766C113.567 72.1169 115.021 64.659 114.978 57.1349C114.935 49.6108 113.395 42.17 110.449 35.2435C107.502 28.3171 103.207 22.0426 97.8123 16.7834ZM112.248 52.9695C110.11 54.605 109.7 57.1897 109.32 59.7014C109.18 61.3428 108.759 62.9481 108.075 64.4474C108.075 59.7306 107.533 54.5028 104.576 53.7726C104.443 53.5851 104.321 53.3901 104.21 53.1885C104.21 53.0279 104.078 52.765 103.99 52.473C103.778 51.274 103.164 50.1824 102.248 49.3772C101.822 49.1314 101.35 48.9771 100.861 48.9243C100.372 48.8715 99.8768 48.9213 99.4081 49.0705C99.0109 49.1955 98.5907 49.2304 98.1783 49.1727C95.0768 48.217 92.175 46.7079 89.6137 44.7188C89.4361 44.5372 89.2029 44.42 88.951 44.3856C88.699 44.3512 88.4428 44.4017 88.2228 44.529C87.9088 44.7299 87.6435 44.9979 87.446 45.3135C87.2485 45.6292 87.1238 45.9847 87.0809 46.3544C87.062 48.0944 87.6995 49.778 88.867 51.0711C88.867 51.0711 90.9167 53.466 92.1025 53.2469C92.8638 53.1155 94.2547 52.9841 94.9281 53.6996C95.028 53.7922 95.106 53.9057 95.1567 54.0319C95.2073 54.1582 95.2292 54.2941 95.2209 54.4298C94.9139 55.4812 94.2519 56.3944 93.347 57.0145C92.0782 58.0363 90.5645 58.7107 88.9548 58.9713C88.3038 59.1194 87.6632 59.3096 87.037 59.5408C85.9389 59.9789 85.6608 59.9059 85.5729 59.8767C85.1579 59.2665 84.8646 58.5823 84.7091 57.8615C84.592 57.4818 84.4603 57.0583 84.2992 56.6056C83.2025 53.7146 81.6016 51.0399 79.5704 48.7054C78.9134 47.958 78.0549 47.4146 77.0971 47.1402C76.1393 46.8658 75.1226 46.8718 74.1681 47.1575C74.0313 47.1946 73.9042 47.2608 73.7955 47.3515C73.6868 47.4423 73.5992 47.5554 73.5386 47.6832C73.4803 47.8117 73.4502 47.9511 73.4502 48.0921C73.4502 48.2331 73.4803 48.3725 73.5386 48.501C74.0962 49.853 74.5849 51.2323 75.0026 52.6336C75.2796 53.345 75.4522 54.0926 75.515 54.8533C75.5186 55.6752 75.7409 56.4815 76.1592 57.1897C77.2512 59.0354 78.6243 60.7006 80.2292 62.1255C80.4927 62.3738 80.727 62.5928 80.9319 62.8119C81.2375 63.1535 81.5074 63.5253 81.7372 63.9217C81.9556 64.4039 82.273 64.835 82.669 65.1871C83.0649 65.5393 83.5305 65.8046 84.0357 65.9661C85.2468 66.2042 86.4952 66.1793 87.6958 65.8931H87.8129C87.037 68.1711 84.065 71.2669 82.1764 73.1945C81.4883 73.8955 80.888 74.5088 80.4781 75.0053C77.1986 78.8459 77.023 79.3862 76.613 81.9563C76.4813 82.7448 76.3202 83.7086 75.9981 85.1105C75.4272 87.5638 74.6805 88.0311 72.4844 89.5936C71.8988 90.0025 71.2254 90.4698 70.4494 91.0539C69.6735 91.638 69.8785 92.777 70.0688 93.478C70.0688 93.6678 70.2005 93.9453 70.2298 94.1059C69.9423 94.2943 69.6325 94.4463 69.3075 94.5586C68.5827 94.7778 67.9271 95.1803 67.4042 95.7268C67.17 96.0043 66.8479 96.4132 66.4673 96.9097C65.6483 97.9943 64.7581 99.0236 63.8027 99.9909C62.4169 100.726 60.831 100.997 59.2788 100.765C59.2788 100.765 59.2788 100.619 59.2788 100.546C59.4055 99.8585 59.2808 99.1487 58.9275 98.5452C58.0791 97.3204 57.5462 95.9061 57.3756 94.4272C57.2146 93.6678 57.0535 92.8063 56.7607 91.8425C56.6221 91.4529 56.4137 91.0918 56.1458 90.7765C55.9759 90.5955 55.855 90.3744 55.7944 90.1339C55.4794 89.0585 55.5895 87.9036 56.1019 86.9067C56.5365 85.9922 56.7758 84.9977 56.8046 83.9861C56.7078 82.224 56.0859 80.5307 55.0185 79.1233C54.401 78.283 53.908 77.3584 53.5545 76.378C53.5163 75.6176 53.5852 74.8557 53.7594 74.1145C54.1561 72.7507 54.1255 71.2986 53.6716 69.9527C53.4008 69.5514 52.9988 69.2564 52.5342 69.1179C52.0696 68.9794 51.5712 69.0061 51.1242 69.1933C50.8361 69.2675 50.5338 69.2675 50.2457 69.1933C49.1945 68.4567 47.9968 67.9543 46.7338 67.7199C45.4708 67.4856 44.172 67.5249 42.9256 67.8353L40.9052 68.0689C40.8033 68.0708 40.7032 68.0958 40.6124 68.1419C39.607 68.3934 38.5744 68.5209 37.5379 68.5216C36.0739 68.0835 34.0096 65.4112 32.7652 63.8195C30.8912 61.41 30.8912 60.7674 30.8912 59.3656C30.9101 58.3879 30.8415 57.4105 30.6862 56.445C30.042 52.2977 30.1738 52.0641 33.6143 47.7708L34.0389 47.2305C36.557 44.0179 40.2757 40.4986 42.5303 39.9291C45.839 39.1989 50.1286 38.8193 52.6028 39.5786C52.954 40.542 53.4475 41.4476 54.0669 42.2655C54.7258 43.2404 55.6064 44.0462 56.6368 44.6171C57.6672 45.1881 58.8183 45.5082 59.9962 45.5512C60.6171 45.5127 61.2227 45.3431 61.7729 45.0536C62.3231 44.764 62.8054 44.3613 63.1878 43.8719C66.3281 45.2175 69.6853 45.9891 73.0993 46.1499C74.0862 46.1881 75.063 45.941 75.9123 45.4384C76.7617 44.9358 77.4473 44.1991 77.8867 43.317C78.2935 42.525 78.4908 41.6426 78.4601 40.7533C78.4293 39.864 78.1715 38.9973 77.7111 38.2351C76.247 36.366 74.051 36.9355 72.7333 37.2713H72.4405C71.7963 37.432 71.3279 37.4904 70.8886 36.9355C70.1922 36.107 69.6471 35.1629 69.2782 34.1463C68.7658 32.8613 68.0631 32.2917 67.2139 32.4378C65.867 32.6714 65.34 34.8181 65.1643 35.9133C64.4469 33.6498 63.2903 30.7292 61.3578 29.6194C60.9596 29.4023 60.5184 29.2753 60.0654 29.2476C59.6125 29.2198 59.159 29.2919 58.7371 29.4588C58.3927 29.5656 58.0795 29.7544 57.8245 30.0088C57.5695 30.2631 57.3802 30.5755 57.2731 30.9191C57.1721 31.5599 57.2072 32.2147 57.3762 32.8411C57.5451 33.4675 57.8442 34.0515 58.254 34.5552C58.2929 34.5918 58.323 34.6367 58.3419 34.6866V34.7742C57.9006 35.1493 57.4075 35.4592 56.8778 35.6942C56.2336 31.7952 53.9497 29.2543 51.2852 29.5026C49.4003 29.763 47.639 30.5879 46.2343 31.8683C44.697 33.4162 41.1541 35.373 40.1293 35.0225C39.5775 34.7979 39.1076 34.4107 38.7823 33.9127C38.4456 33.1825 39.4412 32.1895 39.4558 32.1895C39.9828 31.6638 40.4953 31.6784 41.4322 31.7368C42.2827 31.8648 43.152 31.764 43.9504 31.4448C44.902 31.0067 46.1904 30.2765 46.4246 29.0061C46.4582 28.4804 46.37 27.9541 46.1669 27.4679C45.9638 26.9817 45.6512 26.5487 45.2534 26.2023L45.9708 26.0125C46.9224 25.7496 47.8154 25.516 48.5035 25.2677C50.1641 24.7433 51.7128 23.9164 53.0713 22.8291C53.5293 22.3784 53.8579 21.8137 54.023 21.1935C54.1254 20.9453 54.2133 20.697 54.3304 20.4488C54.5887 21.032 55.0081 21.5298 55.5396 21.8841C56.071 22.2384 56.6926 22.4344 57.3317 22.4494C59.2948 22.3925 61.1777 21.6599 62.6608 20.3758C63.1575 19.7873 63.5443 19.1146 63.8027 18.3898C64.7697 18.5098 65.7508 18.3491 66.6285 17.9269C67.5062 17.5047 68.2432 16.8389 68.7512 16.0095C69.0101 15.4893 69.0682 14.8923 68.9143 14.3321C68.7604 13.772 68.4053 13.2879 67.9166 12.9721C67.5123 12.7341 67.0564 12.5966 66.5876 12.5712C66.1188 12.5458 65.6507 12.6332 65.2228 12.8261C64.8859 12.9358 64.5369 13.0044 64.1834 13.0305L64.3151 12.8261C64.9193 12.1154 65.2558 11.2168 65.2667 10.2851C65.2817 9.87331 65.1649 9.46741 64.9333 9.12614C64.7017 8.78487 64.3673 8.52593 63.9784 8.38677C62.5876 7.96328 61.226 9.42357 60.7136 10.0807C60.135 10.7159 59.7038 11.4705 59.4508 12.2908C59.1978 13.1111 59.1291 13.9769 59.2496 14.8267C58.9138 15.2335 58.6468 15.6922 58.459 16.1847C58.4126 16.3309 58.3434 16.4689 58.254 16.5936C58.0186 15.7865 57.5377 15.0721 56.8778 14.5492C56.5474 14.3507 56.1737 14.2351 55.7887 14.2122C55.4037 14.1893 55.0188 14.2599 54.6671 14.4178L54.0962 14.5638C53.8795 14.6145 53.6592 14.6486 53.4373 14.666C53.4941 14.4561 53.5675 14.251 53.6569 14.0527C54.1606 13.5036 54.7254 13.0136 55.3406 12.5924C55.9994 12.0521 56.8046 11.4388 57.5074 10.7378C58.1567 10.0751 58.7584 9.3675 59.3081 8.62041C59.6105 8.19367 59.9485 7.79311 60.3183 7.42297C60.814 6.96558 61.4029 6.62046 62.0447 6.41126C62.6866 6.20206 63.3662 6.13372 64.037 6.21093H64.3444C68.2534 6.60521 69.5857 7.14552 70.0249 7.42297C69.776 7.5544 69.3807 7.70043 69.1464 7.80265C68.6157 7.94935 68.1185 8.19731 67.6824 8.53279C67.3529 8.78007 67.1333 9.14595 67.0704 9.55241C67.0075 9.95887 67.1063 10.3738 67.3457 10.7086C68.3266 12.0667 71.7378 12.1689 73.0408 11.5264C73.5791 11.1471 74.0204 10.6469 74.3291 10.0661C74.487 9.78493 74.6734 9.52069 74.8855 9.27754C75.4572 9.01889 76.0498 8.80884 76.6569 8.64962C77.8891 8.39317 79.046 7.85867 80.0389 7.08711C86.094 9.8236 91.6041 13.6278 96.3043 18.3168C105.637 27.57 111.3 39.8779 112.248 52.9695ZM31.755 8.60581C35.6696 6.51619 39.8303 4.92189 44.1407 3.85986C43.3209 4.34176 42.5596 4.80905 41.9154 5.21793C41.2712 5.62681 40.7149 6.0503 40.1732 6.45918C39.0507 7.4091 37.773 8.15988 36.396 8.67882C34.4346 9.5099 32.658 10.721 31.1694 12.2419C30.1257 13.243 28.9772 14.1291 27.7435 14.8851C28.2092 12.3505 29.6485 10.0975 31.755 8.60581ZM18.6665 18.2729C19.1643 17.791 19.662 17.3091 20.1305 16.8126C19.7469 18.1863 19.2014 19.5098 18.5054 20.7554C17.9767 21.3701 17.4042 21.946 16.7925 22.4786C15.65 23.4085 14.6618 24.5124 13.8645 25.7496C13.2749 26.593 12.5296 27.3166 11.6684 27.8817C11.0273 28.3589 10.4384 28.9022 9.91156 29.5026C12.3361 25.4011 15.2785 21.6271 18.6665 18.2729ZM3.07451 64.3159C3.30876 64.4474 3.52836 64.5934 3.70405 64.7102C4.69401 65.5907 5.59168 66.5693 6.38323 67.6308C6.63212 67.9375 7.12989 68.8429 7.62766 69.7044C8.30751 70.9998 9.08059 72.2443 9.94084 73.4282C11.2351 74.8031 12.872 75.8109 14.6843 76.3488C16.7632 76.8891 18.769 78.0281 19.3107 82.5842C19.4132 83.402 19.501 84.3658 19.5888 85.3734C19.7499 87.2717 19.9256 89.3892 20.2916 91.3314C19.7815 91.598 19.3785 92.0309 19.1496 92.558C18.7596 93.8379 18.8374 95.2143 19.3692 96.4424C19.1496 96.2087 18.9007 96.0043 18.6665 95.7706C10.1247 87.2942 4.64134 76.2322 3.07451 64.3159ZM96.3189 95.7268C86.7575 105.276 73.9965 110.967 60.486 111.705C46.9754 112.444 33.6675 108.178 23.1172 99.728C21.6531 97.3624 20.438 94.325 20.9211 93.2443C20.9211 93.1275 21.0675 92.9377 21.5506 92.8647C21.6869 92.8468 21.8176 92.7996 21.9339 92.7265C22.0502 92.6534 22.1492 92.5561 22.2241 92.4412C22.3034 92.3304 22.3587 92.2044 22.3865 92.0711C22.4142 91.9379 22.4137 91.8003 22.3851 91.6672C21.9544 89.4929 21.6658 87.293 21.5214 85.0813C21.4335 84.0591 21.3603 83.0953 21.2578 82.1607C20.5551 76.3196 17.627 74.8593 15.1528 74.2605C13.7478 73.842 12.4729 73.0731 11.4488 72.0263C10.6809 70.9589 9.97693 69.8471 9.34058 68.6968C8.92204 67.9093 8.46269 67.1441 7.96439 66.4042C7.0317 65.19 5.97157 64.0787 4.80207 63.0893L2.81098 61.8335C2.66458 60.2563 2.59138 58.6646 2.59138 57.0729C2.58046 50.7839 3.65515 44.5401 5.76834 38.6148C6.83708 36.9063 10.8046 31.0359 12.8689 29.6048C13.996 28.8582 14.9577 27.8891 15.6945 26.7572C16.3921 25.7355 17.2299 24.8163 18.1834 24.0265C18.8838 23.3904 19.5347 22.702 20.1305 21.9675C20.9755 20.5519 21.6255 19.0292 22.0631 17.4406L22.3705 16.5206C22.5755 15.9365 23.0147 14.8851 23.3368 14.1257C24.4348 13.2641 25.5621 12.4318 26.704 11.6432C25.8756 13.1475 25.5913 14.8903 25.8988 16.579C25.9296 16.7082 25.9871 16.8296 26.0678 16.9353C26.1485 17.0409 26.2506 17.1285 26.3673 17.1923C26.5145 17.2765 26.6808 17.3217 26.8504 17.3238C26.9524 17.3379 27.0559 17.3379 27.1579 17.3238C29.1662 16.5173 30.9819 15.2983 32.487 13.746C33.7845 12.4091 35.3311 11.3377 37.0401 10.5918C38.6393 10.0153 40.1256 9.16539 41.4322 8.0801C41.9886 7.67122 42.501 7.27694 43.0573 6.92647C44.9899 5.67062 48.0936 3.93287 50.1433 2.77924C52.6039 2.45206 55.0835 2.28621 57.5659 2.28275C64.5446 2.27558 71.4609 3.59385 77.9453 6.16712C77.3597 6.40077 76.6277 6.63442 76.1738 6.76584C75.4205 6.95673 74.6894 7.22592 73.9924 7.569C73.4678 7.95096 73.0414 8.45138 72.748 9.02929C72.5876 9.31247 72.3961 9.57695 72.177 9.81785C71.3163 10.0669 70.4024 10.0669 69.5417 9.81785L69.8785 9.68643C70.7276 9.35056 71.7817 8.95628 72.1038 7.99249C72.1854 7.75065 72.2106 7.49345 72.1777 7.24042C72.1447 6.98739 72.0543 6.74519 71.9135 6.53219C71.1668 5.39317 68.9854 4.72143 64.5933 4.28335H64.3444C63.4089 4.1682 62.4596 4.25463 61.5604 4.53678C60.6613 4.81893 59.8333 5.29023 59.1324 5.91887C58.6 6.34406 58.1185 6.82917 57.6977 7.36456C57.2131 8.03511 56.6745 8.66513 56.0872 9.24834C55.4138 9.89087 54.6232 10.4896 54.0522 11.0007C53.1558 11.5721 52.3881 12.323 51.7976 13.2057C51.6073 13.6584 51.007 15.0165 51.7976 15.9511C52.5882 16.8857 53.9644 16.5498 54.5061 16.433L55.1795 16.2577C55.3551 16.1955 55.5366 16.1514 55.7212 16.1263C56.1408 16.6296 56.4052 17.2433 56.4825 17.8933C56.5232 18.1125 56.6387 18.311 56.8096 18.4547C56.9804 18.5985 57.196 18.6788 57.4195 18.6818C58.0182 18.7852 58.6341 18.6652 59.1498 18.3447C59.6655 18.0242 60.045 17.5257 60.2158 16.9441C60.3651 16.5205 60.6225 16.1431 60.9625 15.8489C61.141 15.6988 61.2619 15.4916 61.3046 15.2627C61.3473 15.0337 61.3092 14.7971 61.1967 14.593C61.0759 14.2127 61.0433 13.8099 61.1017 13.4152C61.16 13.0205 61.3077 12.6443 61.5335 12.3149C61.9173 11.5252 62.5031 10.8502 63.2317 10.3582C63.2246 10.3919 63.2246 10.4267 63.2317 10.4604C63.1594 10.9406 62.9625 11.3936 62.6608 11.7746C62.4209 12.0438 62.245 12.3635 62.1461 12.7099C62.0473 13.0563 62.028 13.4204 62.0898 13.7752C62.1655 14.0026 62.2918 14.21 62.4591 14.382C62.6264 14.5539 62.8304 14.6859 63.056 14.7682C63.9365 15.1097 64.9133 15.1097 65.7938 14.7682C66.2916 14.6222 66.6283 14.5346 66.7601 14.6368C67.1114 14.8851 67.0675 15.0311 66.9797 15.2209C66.6181 15.7129 66.1219 16.0904 65.5506 16.308C64.9792 16.5255 64.3571 16.574 63.7588 16.4476C63.6215 16.3713 63.4695 16.3254 63.3129 16.3128C63.1563 16.3002 62.9988 16.3213 62.8511 16.3746C62.6521 16.4569 62.4777 16.5887 62.3444 16.7574C62.2111 16.9261 62.1235 17.1262 62.0898 17.3384C61.9105 18.0157 61.5573 18.6348 61.065 19.1345C60.0092 19.9589 58.7394 20.4655 57.4049 20.5948C56.3947 20.5218 56.219 20.1275 55.9408 19.412C55.7319 18.841 55.3729 18.3366 54.9014 17.9517C54.7107 17.8101 54.4749 17.7424 54.2379 17.7612C54.001 17.78 53.7789 17.884 53.613 18.0539C52.9348 18.7531 52.4155 19.5899 52.0904 20.5072C51.998 20.7945 51.8702 21.0692 51.7098 21.325C50.5358 22.2584 49.2013 22.971 47.7715 23.4278C47.1566 23.6468 46.3075 23.8805 45.3998 24.1141C44.4921 24.3478 43.8479 24.5376 43.0573 24.7858C42.8969 24.8331 42.7512 24.9204 42.6342 25.0396C42.5171 25.1588 42.4326 25.3059 42.3886 25.4668C42.3445 25.6278 42.3425 25.7973 42.3827 25.9593C42.4229 26.1212 42.5039 26.2702 42.6181 26.3922L43.1598 26.9617C43.6869 27.502 44.4774 28.3051 44.4189 28.6556C44.4189 28.6556 44.3018 29.0937 43.0573 29.6632C42.5861 29.8201 42.0836 29.8602 41.5933 29.78C40.9694 29.6676 40.3279 29.7 39.7185 29.8748C39.1092 30.0495 38.5484 30.3619 38.0796 30.7876C37.5285 31.2707 37.133 31.9056 36.9428 32.6124C36.7526 33.3192 36.7763 34.0662 37.0109 34.7596C37.5498 35.7543 38.4351 36.5179 39.4997 36.9063C41.8861 37.724 46.3075 34.6282 47.6544 33.2701C48.7505 32.2825 50.1162 31.6421 51.578 31.4302C53.1738 31.2841 54.6232 33.2409 55.0624 36.0885C55.0901 36.4162 55.2128 36.7288 55.4156 36.9881C55.6184 37.2474 55.8924 37.4422 56.2044 37.5488C57.7709 38.0891 59.9084 36.0885 59.9962 35.9863C60.1759 35.8629 60.3256 35.7009 60.4345 35.5124C60.5434 35.3238 60.6086 35.1133 60.6254 34.8964C60.6423 34.6794 60.6103 34.4614 60.5318 34.2584C60.4534 34.0554 60.3304 33.8724 60.1719 33.7228L59.9816 33.4308C59.1617 32.1457 59.1471 31.6638 59.2056 31.4886C59.2743 31.3958 59.3723 31.3289 59.4838 31.2987C59.6398 31.2268 59.8097 31.1895 59.9816 31.1895C60.1535 31.1895 60.3233 31.2268 60.4794 31.2987C61.5481 31.8829 62.6315 34.0295 63.4074 37.1399C63.5345 37.6273 63.8208 38.0586 64.2212 38.3654C64.6217 38.6722 65.1132 38.8371 65.6181 38.8339C66.3062 38.8339 67.0821 38.2205 67.0821 36.9063C67.1127 36.2952 67.226 35.691 67.4189 35.1101C67.85 36.3031 68.4894 37.4105 69.3075 38.3812C69.7129 38.9141 70.2751 39.3075 70.9155 39.5065C71.5559 39.7055 72.2426 39.7 72.8797 39.491H73.1872C74.5195 39.1405 75.515 38.9653 76.1153 39.7392C76.351 40.2084 76.4737 40.7259 76.4737 41.2506C76.4737 41.7754 76.351 42.2929 76.1153 42.762C75.8367 43.3153 75.4004 43.7741 74.8612 44.0807C74.322 44.3872 73.7039 44.528 73.0847 44.4852C69.6855 44.2755 66.3525 43.4542 63.2464 42.0611C63.0257 41.9693 62.7796 41.9586 62.5517 42.0308C62.3239 42.1029 62.129 42.2534 62.0019 42.4554C61.8056 42.8587 61.5086 43.2048 61.1394 43.4606C60.7701 43.7163 60.3412 43.873 59.8937 43.9157C59.0363 43.8446 58.2065 43.5786 57.468 43.1382C56.7296 42.6978 56.102 42.0945 55.6334 41.3748C55.0779 40.6177 54.6525 39.7738 54.3743 38.8777C54.3371 38.7291 54.2644 38.5918 54.1624 38.4774C54.0604 38.363 53.9322 38.2748 53.7887 38.2205C50.8606 37.0523 45.6487 37.5634 42.0764 38.352C39.0312 39.0237 34.9905 43.0541 32.4577 46.2959L32.0331 46.8363C28.4902 51.3486 27.9485 52.0349 28.7391 57.0583C28.8713 57.9084 28.93 58.7683 28.9147 59.6284C28.9147 61.3954 29.0172 62.4614 31.2133 65.2797C32.7652 67.2949 34.9173 70.0403 36.9669 70.6536C37.8343 70.8503 38.7348 70.8503 39.6022 70.6536C40.1707 70.532 40.7288 70.366 41.2712 70.1571L43.2037 69.9381C44.2412 69.6617 45.3274 69.6192 46.3834 69.8137C47.4393 70.0082 48.4387 70.4348 49.3088 71.0625C50.0125 71.3848 50.8119 71.4317 51.5487 71.1939L52.0026 71.1063C52.076 72.0313 52.0069 72.9621 51.7976 73.8663C51.5685 74.8569 51.514 75.8798 51.6366 76.8891C51.9956 78.0931 52.5548 79.2285 53.2909 80.2477C54.156 81.3246 54.708 82.6177 54.8867 83.9861C54.8661 84.7513 54.6814 85.5031 54.345 86.1911C53.6783 87.5525 53.5275 89.1085 53.9205 90.572C54.0311 91.1146 54.2836 91.6184 54.6525 92.0323C54.7653 92.1646 54.859 92.3121 54.9307 92.4704C55.1586 93.2533 55.3444 94.0479 55.487 94.8507C55.7181 96.6009 56.3601 98.272 57.361 99.728C57.3995 99.9601 57.3995 100.197 57.361 100.429C57.2769 100.762 57.2872 101.112 57.3906 101.439C57.494 101.766 57.6864 102.059 57.9466 102.284C58.647 102.673 59.4444 102.856 60.2451 102.809C61.8645 102.811 63.4573 102.399 64.8715 101.612C66.0393 100.558 67.0852 99.3779 67.9899 98.0925L68.8829 96.9681C69.2086 96.683 69.5936 96.4735 70.0102 96.3548C70.6878 96.1515 71.3025 95.7796 71.7963 95.2741C72.0191 94.9243 72.1494 94.5238 72.175 94.1101C72.2006 93.6964 72.1207 93.283 71.9427 92.9085C71.9427 92.777 71.8549 92.5872 71.8256 92.4412C72.4845 91.9593 73.0554 91.565 73.5825 91.1999C75.881 89.6228 77.1401 88.7466 77.9746 85.5486C78.3113 84.0883 78.4724 83.0661 78.6041 82.2629C78.9555 80.1309 78.9994 79.8096 82.0153 76.2757C82.396 75.8231 82.9816 75.2389 83.6404 74.538C86.3928 71.6174 90.17 67.7768 90.0236 64.6518C90.0185 64.5182 89.9859 64.3871 89.928 64.2666C89.8701 64.146 89.788 64.0386 89.6869 63.9509C89.5816 63.8639 89.4602 63.7985 89.3295 63.7584C89.1989 63.7183 89.0616 63.7043 88.9256 63.7172L87.4615 63.9217C86.5032 64.158 85.506 64.1928 84.5335 64.0239C84.065 63.9071 83.8307 63.5566 83.4062 62.8557C83.1099 62.3352 82.7616 61.8459 82.3667 61.3954C82.1032 61.1033 81.825 60.8551 81.5468 60.5922C80.0688 59.2949 78.8128 57.7659 77.8282 56.0653C77.5758 55.6211 77.454 55.115 77.4768 54.605C77.4318 53.7115 77.2693 52.8278 76.9937 51.9765C76.6716 50.9981 76.3056 49.9175 75.8957 48.8661C76.3064 48.8579 76.7136 48.9431 77.0865 49.1152C77.4593 49.2872 77.788 49.5416 78.0478 49.8591C79.9308 52.0164 81.4176 54.4881 82.4399 57.1605C82.5863 57.6132 82.7327 58.0221 82.8498 58.3872C83.3769 60.0373 83.7282 61.1179 84.7531 61.5998C85.2371 61.7452 85.7453 61.7929 86.248 61.7403C86.7508 61.6876 87.2379 61.5356 87.6811 61.2931C88.2219 61.1019 88.7745 60.9458 89.3355 60.8259C91.2312 60.4779 93.0086 59.6593 94.5035 58.4456C95.8445 57.4734 96.7612 56.0259 97.0656 54.4006C97.0857 53.9978 97.0219 53.5952 96.8783 53.2182C96.7346 52.8412 96.5143 52.498 96.2311 52.2101C95.6444 51.684 94.9367 51.3101 94.1706 51.1216C93.4046 50.9332 92.6038 50.9359 91.839 51.1295C91.2341 50.7176 90.6875 50.2264 90.2139 49.6692C89.5445 48.847 89.1321 47.8466 89.0281 46.7924C91.6738 48.7587 94.6478 50.2419 97.8123 51.1733C98.4962 51.3317 99.2073 51.3317 99.8912 51.1733C100.55 51.0273 100.887 50.9689 101.355 51.1733C101.776 51.7712 102.075 52.4461 102.234 53.1593C102.351 53.5244 102.439 53.8311 102.541 54.0793C102.541 54.0793 103.171 55.5396 104.005 55.744H104.181C104.737 55.744 106.553 56.8101 106.245 66.5794C106.245 66.9883 106.245 67.1489 106.245 67.2657C106.25 67.4462 106.306 67.6217 106.405 67.7728C106.504 67.9239 106.643 68.0446 106.807 68.1217C106.97 68.1988 107.152 68.2292 107.332 68.2096C107.512 68.19 107.683 68.1211 107.826 68.0105C110.608 65.9077 111.062 62.8119 111.472 60.0665C111.59 58.6163 111.961 57.1979 112.57 55.8755C112.57 56.2843 112.57 56.6786 112.57 57.0875C112.558 64.2801 111.116 71.3989 108.326 78.0315C105.537 84.6641 101.456 90.6787 96.3189 95.7268Z" fill="#8F8F8F"/>
</svg>
