<svg width="147" height="105" viewBox="0 0 147 105" fill="none" xmlns="http://www.w3.org/2000/svg">
<path d="M73.5514 100.204C73.2705 100.201 73.0024 100.087 72.8052 99.8871C72.6079 99.6876 72.4973 99.4186 72.4973 99.1384V79.2346C72.4968 77.5544 72.133 75.8941 71.4306 74.3669C70.7282 72.8397 69.7038 71.4816 68.4273 70.3853C66.3 68.5473 63.5848 67.5272 60.7704 67.5085H53.0842L52.9817 68.0196C52.5132 70.2976 49.5852 81.6587 37.4483 81.6587C25.3115 81.6587 22.3834 70.2976 21.9295 68.078L21.8271 67.5669H14.1701C11.4066 67.5485 8.72554 68.5054 6.60108 70.2684C5.31547 71.3652 4.28334 72.7268 3.57569 74.2595C2.86804 75.7922 2.50167 77.4596 2.50178 79.147V99.1238C2.5018 99.404 2.39121 99.673 2.19394 99.8725C1.99667 100.072 1.72858 100.186 1.44767 100.19C1.30732 100.19 1.16835 100.162 1.03868 100.109C0.909015 100.055 0.791196 99.9766 0.691954 99.8776C0.592711 99.7786 0.51399 99.6611 0.46028 99.5318C0.406571 99.4024 0.378925 99.2638 0.378925 99.1238V79.2346C0.375809 77.3733 0.751832 75.5308 1.48418 73.8188C2.21653 72.1069 3.28993 70.5611 4.63927 69.2754L4.84423 69.0856V62.4121C4.84129 57.5242 6.16146 52.7263 8.66537 48.5247C10.9776 44.6512 12.1967 40.2261 12.1937 35.7179V25.1162C12.3527 18.5154 15.0933 12.2384 19.83 7.626C24.5667 3.01362 30.9239 0.431641 37.5435 0.431641C44.1631 0.431641 50.5203 3.01362 55.2569 7.626C59.9936 12.2384 62.7342 18.5154 62.8932 25.1162C62.8932 25.3989 62.7806 25.6701 62.5802 25.87C62.3798 26.0699 62.108 26.1822 61.8245 26.1822C61.5436 26.1784 61.2755 26.0644 61.0782 25.8649C60.881 25.6654 60.7704 25.3964 60.7704 25.1162C60.6183 19.0725 58.1044 13.3273 53.7651 9.10643C49.4258 4.88553 43.6046 2.52307 37.5435 2.52307C31.4824 2.52307 25.6612 4.88553 21.3219 9.10643C16.9826 13.3273 14.4687 19.0725 14.3165 25.1162V35.7179C14.3108 40.6046 12.9913 45.4003 10.4954 49.6053C8.18317 53.4788 6.96404 57.9039 6.96709 62.4121V67.4209L7.90407 66.939C9.86532 65.9179 12.0457 65.3867 14.258 65.3911H22.7055C24.2586 65.3911 25.7481 64.7757 26.8464 63.6802C27.9446 62.5848 28.5616 61.0991 28.5616 59.5499V55.8992L28.181 55.7239C26.1026 54.8036 24.2569 53.4316 22.7787 51.7081C17.1275 45.1076 18.3866 35.309 18.533 34.1846V34.0824C18.5198 34.0247 18.5198 33.9648 18.533 33.9072C18.5926 33.7542 18.6851 33.6161 18.804 33.5025C18.9229 33.389 19.0652 33.3028 19.2211 33.25C36.5699 28.1682 42.8652 12.4409 42.9238 12.2802C42.9853 12.0874 43.106 11.9188 43.2689 11.7982C43.4318 11.6776 43.6287 11.6113 43.8315 11.6085C44.0568 11.6106 44.276 11.6818 44.4593 11.8125C44.6426 11.9431 44.7812 12.1268 44.8563 12.3387C46.0568 16.0186 50.5661 26.5035 55.2071 26.5035C55.3232 26.4824 55.4423 26.4824 55.5584 26.5035H55.7341C57.3751 26.633 58.9162 27.3414 60.0811 28.5015C61.2459 29.6617 61.9583 31.1979 62.0904 32.8345C62.2226 34.4711 61.766 36.1012 60.8024 37.4324C59.8387 38.7637 58.4312 39.7089 56.8321 40.0988L56.3783 40.201V40.6537C56.1001 44.662 54.598 48.4892 52.074 51.6205C50.5958 53.344 48.7501 54.716 46.6717 55.6363L46.2911 55.8115V59.4623C46.2911 61.0114 46.9081 62.4972 48.0063 63.5926C49.1045 64.688 50.5941 65.3034 52.1472 65.3034H60.7704C62.9823 65.3026 65.1618 65.8336 67.1243 66.8513L68.0613 67.3333V62.4121C68.0644 57.9039 66.8452 53.4788 64.533 49.6053C63.6081 48.0536 62.8382 46.4151 62.2344 44.7133C62.1762 44.5848 62.1461 44.4454 62.1461 44.3044C62.1461 44.1634 62.1762 44.0241 62.2344 43.8956C62.3583 43.6459 62.573 43.4526 62.8347 43.3553C62.9514 43.3412 63.0694 43.3412 63.1861 43.3553C63.4061 43.3559 63.6204 43.4253 63.799 43.5536C63.9775 43.682 64.1113 43.8628 64.1816 44.0708C64.7365 45.6418 65.4476 47.1534 66.3045 48.5831C68.8084 52.7847 70.1285 57.5826 70.1256 62.4705V69.144L70.3306 69.3338C71.6799 70.6195 72.7533 72.1653 73.4856 73.8772C74.218 75.5892 74.594 77.4317 74.5909 79.293V99.1238C74.5948 99.4041 74.488 99.6746 74.2934 99.8768C74.0989 100.079 73.8323 100.197 73.5514 100.204ZM30.7137 59.5645C30.7217 61.3509 30.1224 63.0873 29.0136 64.4903C27.9048 65.8933 26.3521 66.88 24.6087 67.2894L23.9792 67.4355L24.1695 68.078C25.004 71.5389 27.9614 79.5559 37.4922 79.5559C47.0231 79.5559 50.0097 71.5243 50.8296 68.078L50.976 67.4501L50.3611 67.304C48.6163 66.895 47.0617 65.9089 45.9505 64.5062C44.8393 63.1035 44.2369 61.3669 44.2414 59.5791V56.6585L43.4362 56.8484C41.4861 57.2886 39.4917 57.5042 37.4922 57.4909C35.4729 57.5146 33.458 57.299 31.4897 56.8484L30.6991 56.6731L30.7137 59.5645ZM43.202 16.6027C38.3581 25.2589 30.4399 31.7919 21.0072 34.9148L20.5973 35.0462V35.4697C20.3777 38.3172 20.2898 45.4727 24.477 50.3647C27.405 53.7087 31.7971 55.4027 37.4922 55.4027C43.1873 55.4027 47.7405 53.6941 50.5368 50.3501C55.778 44.2314 54.2994 34.4913 54.2701 34.3891C54.23 34.1116 54.2981 33.8294 54.4604 33.6005C54.6284 33.3783 54.874 33.2271 55.1485 33.177H55.3388C55.5885 33.1833 55.8283 33.2753 56.0177 33.4376C56.2071 33.6 56.3345 33.8226 56.3783 34.0678C56.5127 35.1045 56.5909 36.1477 56.6125 37.1928V38.2296L57.5349 37.7477C58.5255 37.2691 59.3211 36.4655 59.7886 35.4715C60.2561 34.4776 60.3671 33.3536 60.103 32.2878C59.8388 31.222 59.2156 30.279 58.3377 29.6168C57.4597 28.9546 56.3804 28.6133 55.2803 28.6501C55.1595 28.6745 55.035 28.6745 54.9143 28.6501H54.7532C49.9072 28.139 46.1447 20.9544 44.3293 16.7341L43.8022 15.5075L43.202 16.6027Z" fill="#8F8F8F"/>
<path d="M109.581 104.162H109.113L108.966 104.074L108.864 103.987V103.899L89.2752 77.6137C89.1057 77.3997 89.0249 77.129 89.0494 76.8574C89.0739 76.5857 89.2019 76.3338 89.4069 76.1534L92.9792 72.5465L90.9149 69.4069H86.0543C83.0152 69.4107 80.1017 70.6166 77.9527 72.7601C75.8038 74.9036 74.5948 77.8096 74.5909 80.841V98.934C74.5909 99.2167 74.4783 99.4878 74.2779 99.6877C74.0774 99.8877 73.8056 100 73.5221 100C73.3825 100 73.2442 99.9723 73.1153 99.9186C72.9865 99.8648 72.8696 99.7861 72.7716 99.6869C72.6735 99.5877 72.5961 99.4701 72.544 99.3408C72.4919 99.2116 72.4661 99.0733 72.468 98.934V80.841C72.4719 77.2467 73.9041 73.8006 76.4507 71.2577C78.9974 68.7148 82.4508 67.2826 86.0543 67.2748H89.3337L88.997 66.3987C88.8949 66.1428 88.8975 65.8572 89.0043 65.6033C89.1111 65.3493 89.3135 65.1473 89.568 65.0406L97.7373 61.5359V54.7601L97.4738 54.5703C93.4892 51.6296 90.6119 47.4378 89.3045 42.6689L89.1581 42.114L88.5724 42.2016C88.2853 42.2311 87.9958 42.2311 87.7087 42.2016C86.5255 42.2051 85.3741 41.8201 84.4322 41.1059C83.4903 40.3917 82.8103 39.3881 82.4971 38.2501C82.184 37.112 82.2551 35.9028 82.6996 34.8091C83.144 33.7154 83.9371 32.798 84.9563 32.1986L85.2784 32.0088V21.7867C85.3027 20.6575 85.6204 19.554 86.2003 18.5839C86.7803 17.6138 87.6026 16.8104 88.5871 16.2522L89.3191 15.8287L88.7335 15.23C87.9791 14.4936 87.3156 13.67 86.757 12.7767C86.6673 12.616 86.6202 12.435 86.6202 12.251C86.6202 12.067 86.6673 11.8861 86.757 11.7253C86.8502 11.5672 86.9827 11.4358 87.1417 11.3437C87.3007 11.2516 87.4809 11.202 87.6647 11.1996C90.3878 11.1996 92.8767 9.84155 95.7608 8.27904C99.5381 6.30765 104.179 3.82515 110.753 3.82515C114.39 3.71974 118.001 4.47014 121.294 6.01559L121.543 6.14702L121.806 6.0448C121.923 6.02841 122.041 6.02841 122.157 6.0448H124.529C127.145 6.04866 129.653 7.08686 131.502 8.93182C133.352 10.7768 134.393 13.278 134.397 15.8872V32.3739L134.66 32.5783C135.351 33.0802 135.911 33.74 136.293 34.5022C136.675 35.2645 136.868 36.107 136.856 36.9592C136.848 38.2431 136.383 39.4823 135.543 40.4558C134.704 41.4294 133.545 42.0739 132.274 42.2746L131.849 42.3477L131.747 42.7419C130.234 48.2252 126.643 52.9069 121.733 55.7969L121.425 55.9868V61.5943L129.595 65.099C129.74 65.1579 129.869 65.249 129.973 65.3654C130.077 65.4819 130.153 65.6205 130.195 65.7707C130.268 65.9938 130.268 66.234 130.195 66.4571L129.858 67.3333H133.138C136.741 67.341 140.195 68.7732 142.741 71.3161C145.288 73.859 146.72 77.3051 146.724 80.8994V98.934C146.742 99.0834 146.727 99.2349 146.682 99.3785C146.637 99.5221 146.561 99.6544 146.461 99.7669C146.361 99.8794 146.238 99.9694 146.1 100.031C145.963 100.093 145.813 100.125 145.663 100.125C145.512 100.125 145.362 100.093 145.225 100.031C145.087 99.9694 144.964 99.8794 144.864 99.7669C144.764 99.6544 144.688 99.5221 144.643 99.3785C144.598 99.2349 144.583 99.0834 144.601 98.934V80.841C144.597 77.8096 143.388 74.9036 141.239 72.7601C139.09 70.6166 136.177 69.4107 133.138 69.4069H128.248L126.169 72.5465L129.931 76.095C130.134 76.2774 130.26 76.5303 130.281 76.8019C130.303 77.0735 130.22 77.3431 130.049 77.5553L110.46 103.841L110.372 103.943L110.269 104.03L110.138 104.118H109.669L109.581 104.162ZM109.581 98.9194L116.023 74.4595L114.779 75.0436C113.139 75.7559 111.37 76.1236 109.581 76.1236C107.793 76.1236 106.024 75.7559 104.384 75.0436L103.125 74.4595L109.581 98.9194ZM112.861 94.8452L114.003 95.4001L127.75 76.9858L124.031 73.4811C123.849 73.3095 123.733 73.0794 123.704 72.8312C123.674 72.583 123.733 72.3323 123.87 72.123L126.798 67.7421L127.604 66.5155L121.074 63.6971L112.861 94.8452ZM91.5151 66.4863L95.2338 72.123C95.3708 72.3323 95.4298 72.583 95.4004 72.8312C95.3709 73.0794 95.255 73.3095 95.0728 73.4811L91.3541 76.9858L105.101 95.4001L106.243 94.8452L98.0887 63.6971L91.5151 66.4863ZM99.8162 62.1054L102.012 70.4729V70.5605C102.874 71.7029 104.005 72.6153 105.305 73.2165C106.605 73.8177 108.034 74.0892 109.464 74.0068C110.894 74.0987 112.324 73.8313 113.623 73.2292C114.923 72.6272 116.05 71.7096 116.902 70.5605V70.4729L119.332 62.0908V57.0236L118.453 57.3595C115.63 58.4448 112.611 58.9363 109.588 58.8031C106.565 58.6699 103.602 57.9149 100.885 56.5855L99.948 56.1328L99.8162 62.1054ZM89.934 39.5293C90.0847 39.53 90.2338 39.5598 90.3732 39.6169C90.5312 39.688 90.669 39.7974 90.7738 39.9351C90.8786 40.0728 90.9473 40.2345 90.9734 40.4055C91.4318 43.0046 92.4109 45.4848 93.8523 47.6979C95.2937 49.9109 97.1677 51.8112 99.3624 53.2852C102.062 55.1026 105.168 56.2295 108.407 56.5667C111.647 56.904 114.919 56.4411 117.937 55.219C120.955 53.9969 123.624 52.053 125.711 49.5588C127.798 47.0646 129.237 44.0966 129.902 40.9166C129.956 40.672 130.094 40.4539 130.292 40.2994C130.489 40.1449 130.735 40.0637 130.986 40.0696H131.337C131.772 40.0918 132.207 40.0243 132.614 39.8711C133.021 39.718 133.393 39.4825 133.705 39.1796C134.017 38.8766 134.263 38.5126 134.427 38.1104C134.592 37.7083 134.671 37.2765 134.66 36.8424C134.658 36.1358 134.428 35.4488 134.003 34.8832C133.578 34.3177 132.982 33.9037 132.303 33.7027H130.166C129.049 33.7091 127.97 33.302 127.137 32.5601C126.303 31.8182 125.776 30.7944 125.656 29.6869C125.287 26.3746 124.423 23.136 123.094 20.0782L122.787 19.3773L122.26 19.8884C119.917 21.4509 115.218 22.2394 108.293 22.2394C103.887 22.3263 99.5117 21.4853 95.4534 19.7715L94.4432 19.3335L93.6234 18.8954C92.9499 18.5157 92.2764 18.1068 91.6323 17.6687L91.5151 17.5373H91.2663C90.203 17.6763 89.2274 18.1986 88.5235 19.0056C87.8196 19.8126 87.436 20.8485 87.4451 21.9182L87.5623 31.4685H88.1479L88.5871 31.5707H88.7628C89.8367 31.4449 90.8263 30.9284 91.5422 30.12C92.2581 29.3117 92.6498 28.2683 92.6424 27.1898V21.1442C92.6425 20.8919 92.7322 20.6477 92.8958 20.4552C93.0593 20.2627 93.286 20.1343 93.5355 20.0928L94.2822 19.976L94.6482 20.6331C94.7344 20.7898 94.7797 20.9655 94.78 21.1442V27.1898C94.7783 28.3634 94.4609 29.515 93.8609 30.5244C93.2608 31.5339 92.4002 32.3642 91.3687 32.9288L91.1052 33.0748V33.3669C91.0883 33.4966 91.0433 33.6212 90.9734 33.7319C90.8825 33.892 90.7505 34.0251 90.591 34.1175C90.4315 34.2098 90.2502 34.2582 90.0658 34.2576C89.8693 34.254 89.6774 34.1986 89.5094 34.097C89.2221 33.9363 88.9106 33.8228 88.5871 33.7611H87.0352C86.3258 33.9342 85.6934 34.3355 85.2356 34.903C84.7778 35.4705 84.5201 36.1726 84.5024 36.9008C84.5038 37.3338 84.5942 37.7619 84.7679 38.1588C84.9417 38.5556 85.1951 38.9127 85.5126 39.208C86.1315 39.8001 86.9536 40.1344 87.8111 40.1426C88.386 40.1414 88.949 39.9795 89.4362 39.6753C89.5881 39.5877 89.7587 39.5376 89.934 39.5293ZM122.831 16.0332C123.017 16.033 123.2 16.0814 123.362 16.1736C123.524 16.2659 123.659 16.3987 123.753 16.5589C125.962 20.5637 127.351 24.9667 127.838 29.5117C127.916 30.0858 128.202 30.6117 128.641 30.9907C129.081 31.3698 129.643 31.576 130.224 31.5707H131.161C131.277 31.5496 131.396 31.5496 131.513 31.5707H132.318V15.8287C132.309 14.0785 131.706 12.3828 130.609 11.0174C129.511 9.65198 127.982 8.69717 126.271 8.30825L124.471 7.89937L125.627 9.35966C125.795 9.57522 125.951 9.79944 126.096 10.0314C126.17 10.1528 126.217 10.2884 126.235 10.4293C126.252 10.5703 126.24 10.7133 126.198 10.8492C126.162 10.9838 126.099 11.11 126.014 11.2203C125.929 11.3306 125.822 11.4228 125.7 11.4917C125.539 11.5794 125.357 11.6247 125.173 11.6231C124.985 11.6233 124.801 11.5733 124.638 11.4783C124.476 11.3833 124.342 11.2467 124.251 11.0828C124.105 10.8638 121.03 5.97178 110.811 5.97178C104.779 5.97178 100.563 8.22063 96.8589 10.2066C94.9477 11.3235 92.9203 12.2294 90.8124 12.9082L89.729 13.2148L90.5196 13.9888C91.0817 14.5088 91.6732 14.9964 92.2911 15.4491C92.3871 15.5003 92.4757 15.5641 92.5546 15.6389C95.3363 17.5957 100.299 19.9322 108.117 19.9322C118.761 19.9322 121.074 17.9754 121.528 17.3621L121.66 17.1868V17.1138C121.656 16.9013 121.717 16.6926 121.835 16.5153C121.952 16.338 122.121 16.2005 122.318 16.1208C122.478 16.0455 122.655 16.0152 122.831 16.0332Z" fill="#8F8F8F"/>
</svg>
