<svg width="26" height="26" viewBox="0 0 26 26" fill="none" xmlns="http://www.w3.org/2000/svg">
<path fill-rule="evenodd" clip-rule="evenodd" d="M22.3162 3.68976C19.9407 1.31433 16.7875 0.00602902 13.4233 0C6.48997 0 0.852833 5.64317 0.846804 12.5705C0.846804 14.7892 1.42559 16.9476 2.52287 18.8588L0.738281 25.3762L7.40638 23.6277C9.24523 24.6286 11.3132 25.1591 13.4173 25.1591H13.4233C20.3507 25.1591 25.9939 19.5159 25.9999 12.5826C25.9939 9.2244 24.6916 6.0652 22.3162 3.68976ZM13.4233 23.0369C11.5423 23.0369 9.70344 22.5305 8.09972 21.5779L7.71989 21.3488L3.76485 22.3858L4.81993 18.5272L4.57274 18.1293C3.52369 16.4653 2.97505 14.542 2.97505 12.5705C2.97505 6.80677 7.66563 2.12222 13.4294 2.12222C16.2208 2.12222 18.8434 3.21347 20.821 5.18496C22.7924 7.16248 23.8777 9.7851 23.8777 12.5765C23.8716 18.3463 19.1811 23.0369 13.4233 23.0369ZM19.1509 15.2112C18.8374 15.0545 17.294 14.2948 17.0046 14.1863C16.7152 14.0838 16.5042 14.0295 16.2992 14.343C16.0882 14.6566 15.4853 15.368 15.3044 15.573C15.1235 15.784 14.9366 15.8081 14.6231 15.6513C14.3096 15.4946 13.2967 15.163 12.097 14.0898C11.1625 13.2578 10.5354 12.2269 10.3485 11.9133C10.1677 11.5998 10.3305 11.431 10.4872 11.2743C10.6259 11.1356 10.8007 10.9065 10.9575 10.7256C11.1142 10.5448 11.1685 10.4121 11.271 10.2011C11.3735 9.99009 11.3252 9.80922 11.2469 9.65246C11.1685 9.49571 10.5415 7.94625 10.2762 7.31923C10.023 6.70427 9.76373 6.78868 9.5708 6.78265C9.38993 6.77059 9.17891 6.77059 8.9679 6.77059C8.75688 6.77059 8.41926 6.84897 8.12986 7.16248C7.84047 7.47599 7.03258 8.23564 7.03258 9.7851C7.03258 11.3346 8.16001 12.8237 8.31676 13.0347C8.47352 13.2458 10.5294 16.417 13.6826 17.7796C14.4302 18.1052 15.015 18.2981 15.4732 18.4428C16.2268 18.6839 16.9081 18.6478 17.4507 18.5694C18.0536 18.479 19.3077 17.8097 19.573 17.0742C19.8322 16.3387 19.8322 15.7116 19.7538 15.579C19.6754 15.4464 19.4705 15.368 19.1509 15.2112Z" fill="black"/>
</svg>
